<svg xmlns="http://www.w3.org/2000/svg" width="1600" height="900" viewBox="0 0 1600 900" role="img" aria-labelledby="title desc">
  <title id="title">Workspace tab system product demo</title>
  <desc id="desc">A generic workspace product screen with a top workspace header, browser-like tab strip, business entry chips, object filters, and a table of work items.</desc>
  <defs>
    <filter id="shadow" x="-8%" y="-10%" width="116%" height="126%">
      <feDropShadow dx="0" dy="18" stdDeviation="26" flood-color="#0f172a" flood-opacity="0.14"/>
    </filter>
    <style>
      .bg { fill: #f1f5f9; }
      .page { fill: #fff; filter: url(#shadow); }
      .bar { fill: #f8fafc; }
      .line { stroke: #e5e7eb; stroke-width: 1.5; }
      .line2 { stroke: #edf0f2; stroke-width: 1.3; }
      .muted { fill: #737b82; }
      .faint { fill: #9aa3aa; }
      .text { fill: #252a2e; font-family: Inter, Arial, sans-serif; }
      .title { font-size: 20px; font-weight: 800; }
      .body { font-size: 16px; }
      .small { font-size: 14px; }
      .tiny { font-size: 12px; }
      .strong { font-weight: 800; }
      .chip { fill: #fff; stroke: #dfe5ea; stroke-width: 1.4; }
      .chipActive { fill: #e8fbf8; stroke: #49c9bd; stroke-width: 1.5; }
      .tab { fill: #f8fafc; stroke: #e5e7eb; stroke-width: 1.2; }
      .tabActive { fill: #fff; stroke: #e5e7eb; stroke-width: 1.2; }
      .teal { fill: #12b3a8; }
      .blue { fill: #1d9bf0; }
      .purple { fill: #8b5cf6; }
      .orange { fill: #f59e0b; }
      .green { fill: #22a06b; }
      .red { fill: #f05252; }
      .black { fill: #050505; }
    </style>
  </defs>

  <rect class="bg" width="1600" height="900"/>
  <rect x="34" y="38" width="1532" height="824" rx="22" class="page"/>

  <rect x="34" y="38" width="1532" height="54" rx="22" class="bar"/>
  <line x1="34" y1="92" x2="1566" y2="92" class="line"/>
  <circle cx="75" cy="65" r="8" fill="#ef4444"/>
  <circle cx="104" cy="65" r="8" fill="#f59e0b"/>
  <circle cx="133" cy="65" r="8" fill="#22c55e"/>
  <rect x="176" y="51" width="610" height="28" rx="14" fill="#fff" stroke="#e5e7eb"/>
  <text x="198" y="70" class="text small">workspace.example.com/workspace/home</text>
  <rect x="1194" y="51" width="92" height="28" rx="14" fill="#eef6ff"/>
  <text x="1218" y="70" class="text tiny strong">Work</text>
  <rect x="1300" y="51" width="122" height="28" rx="14" fill="#edf2ff"/>
  <text x="1322" y="70" class="text tiny strong">Finish update</text>
  <circle cx="1454" cy="65" r="17" fill="#8b5cf6"/>
  <text x="1448" y="70" fill="#fff" font-family="Inter, Arial, sans-serif" font-size="13" font-weight="800">U</text>
  <circle cx="1498" cy="65" r="3" fill="#475569"/>
  <circle cx="1510" cy="65" r="3" fill="#475569"/>
  <circle cx="1522" cy="65" r="3" fill="#475569"/>

  <rect x="34" y="92" width="1532" height="64" fill="#fff"/>
  <text x="76" y="128" class="text title">Workspace</text>
  <rect x="204" y="108" width="160" height="32" rx="8" fill="#f3f4f6" stroke="#e5e7eb"/>
  <circle cx="224" cy="124" r="8" fill="#d1d5db"/>
  <text x="242" y="130" class="text small strong">Region</text>
  <path d="M341 121 L348 128 L355 121" fill="none" stroke="#6b7280" stroke-width="1.8" stroke-linecap="round"/>
  <rect x="642" y="104" width="360" height="36" rx="8" fill="#f1f3f5"/>
  <circle cx="668" cy="122" r="7" fill="none" stroke="#8a9299" stroke-width="2"/>
  <line x1="673" y1="127" x2="680" y2="134" stroke="#8a9299" stroke-width="2" stroke-linecap="round"/>
  <text x="696" y="128" class="muted body">Search</text>
  <circle cx="1478" cy="124" r="7" fill="none" stroke="#6b7280" stroke-width="2"/>
  <text x="1475" y="129" class="text tiny strong">?</text>
  <path d="M1514 130 C1508 130 1506 127 1506 123 C1506 116 1510 112 1516 112 C1522 112 1526 116 1526 123 C1526 127 1524 130 1518 130" fill="none" stroke="#6b7280" stroke-width="2"/>
  <circle cx="1516" cy="136" r="2" fill="#6b7280"/>

  <rect x="34" y="156" width="1532" height="50" fill="#fafafa"/>
  <line x1="34" y1="156" x2="1566" y2="156" class="line"/>
  <line x1="34" y1="206" x2="1566" y2="206" class="line"/>
  <rect x="34" y="156" width="44" height="50" fill="#f9fefa"/>
  <path d="M55 176 L44 185 L47 188 L49 186 L49 196 L62 196 L62 186 L64 188 L67 185 Z" fill="#34d399"/>
  <rect x="78" y="156" width="138" height="50" class="tab"/>
  <rect x="104" y="175" width="14" height="14" rx="2" fill="#d1d5db"/>
  <text x="130" y="187" class="muted small">test</text>
  <text x="194" y="187" class="faint body strong">x</text>
  <rect x="216" y="156" width="156" height="50" class="tab"/>
  <rect x="242" y="175" width="14" height="14" rx="2" fill="#c4c9ce"/>
  <text x="268" y="187" class="muted small">TH L2 Plan...</text>
  <text x="346" y="187" class="faint body strong">x</text>
  <rect x="372" y="156" width="160" height="50" class="tab"/>
  <path d="M394 175 L407 182 L394 189 L381 182 Z" fill="#bec6ce"/>
  <text x="422" y="187" class="muted small">test6666...</text>
  <text x="506" y="187" class="faint body strong">x</text>
  <rect x="532" y="156" width="160" height="50" class="tab"/>
  <path d="M554 175 L567 182 L554 189 L541 182 Z" fill="#bec6ce"/>
  <text x="582" y="187" class="muted small">asdasds...</text>
  <text x="666" y="187" class="faint body strong">x</text>
  <rect x="692" y="156" width="172" height="50" class="tab"/>
  <path d="M714 175 L727 182 L714 189 L701 182 Z" fill="#bec6ce"/>
  <text x="742" y="187" class="muted small">test skill ...</text>
  <text x="838" y="187" class="faint body strong">x</text>
  <rect x="864" y="156" width="150" height="50" class="tab"/>
  <rect x="890" y="175" width="14" height="14" rx="2" fill="#c4c9ce"/>
  <text x="916" y="187" class="muted small">test6666</text>
  <rect x="1014" y="156" width="166" height="50" class="tab"/>
  <rect x="1040" y="176" width="16" height="12" rx="2" fill="#f87171"/>
  <text x="1066" y="187" class="muted small">Country ...</text>
  <text x="1154" y="187" class="faint body strong">x</text>
  <rect x="1180" y="156" width="154" height="50" class="tab"/>
  <rect x="1206" y="174" width="13" height="16" rx="2" fill="#c4c9ce"/>
  <text x="1230" y="187" class="muted small">test1112...</text>
  <rect x="1334" y="156" width="168" height="50" class="tabActive"/>
  <rect x="1360" y="175" width="14" height="14" rx="2" fill="#c4c9ce"/>
  <text x="1386" y="187" class="muted small strong">Audit Work...</text>
  <text x="1476" y="187" class="faint body strong">x</text>

  <rect x="34" y="206" width="1532" height="656" fill="#fff"/>
  <rect x="150" y="226" width="138" height="34" rx="17" class="chip"/>
  <rect x="170" y="237" width="14" height="14" rx="3" class="blue"/>
  <text x="198" y="249" class="text small strong">Workbench</text>
  <rect x="300" y="226" width="142" height="34" rx="17" class="chip"/>
  <path d="M321 238 L334 238 L334 250 L321 250 Z" fill="#a78bfa"/>
  <text x="350" y="249" class="text small strong">Old Forecast</text>
  <rect x="454" y="226" width="112" height="34" rx="17" class="chip"/>
  <path d="M475 238 L488 238 L488 250 L475 250 Z" fill="#a78bfa"/>
  <text x="504" y="249" class="text small strong">Forecast</text>
  <rect x="578" y="226" width="134" height="34" rx="17" class="chip"/>
  <rect x="600" y="235" width="5" height="18" fill="#c4c9ce"/>
  <rect x="608" y="241" width="18" height="4" fill="#c4c9ce"/>
  <text x="638" y="249" class="text small strong">Gantt Chart</text>
  <rect x="724" y="226" width="178" height="34" rx="17" class="chip"/>
  <circle cx="748" cy="243" r="7" fill="#a7b0b7"/>
  <circle cx="760" cy="243" r="7" fill="#a7b0b7"/>
  <text x="778" y="249" class="text small strong">People Management</text>
  <rect x="1464" y="226" width="78" height="34" rx="6" class="black"/>
  <text x="1494" y="249" fill="#fff" font-family="Inter, Arial, sans-serif" font-size="14" font-weight="800">New</text>
  <path d="M1526 239 L1534 247 L1542 239" fill="none" stroke="#fff" stroke-width="2" stroke-linecap="round"/>

  <text x="56" y="298" class="muted small">Recent</text>
  <text x="128" y="298" class="text small strong">Owned by me</text>
  <text x="250" y="298" class="muted small">Favorites</text>
  <line x1="126" y1="318" x2="224" y2="318" stroke="#0f9b91" stroke-width="2"/>

  <text x="56" y="356" class="muted small">All</text>
  <rect x="78" y="342" width="22" height="18" rx="9" fill="#eef2f3"/>
  <text x="84" y="356" class="muted tiny">98</text>
  <text x="128" y="356" class="muted small">Workstream</text>
  <rect x="210" y="342" width="28" height="18" rx="9" fill="#eef2f3"/>
  <text x="216" y="356" class="muted tiny">30</text>
  <text x="280" y="356" class="muted small">Workbench</text>
  <rect x="358" y="342" width="28" height="18" rx="9" fill="#eef2f3"/>
  <text x="364" y="356" class="muted tiny">110</text>
  <text x="420" y="356" class="muted small">Supervisor</text>
  <rect x="502" y="342" width="24" height="18" rx="9" fill="#eef2f3"/>
  <text x="508" y="356" class="muted tiny">71</text>
  <text x="560" y="356" class="muted small">Report</text>
  <rect x="614" y="342" width="28" height="18" rx="9" fill="#eef2f3"/>
  <text x="620" y="356" class="muted tiny">98</text>
  <rect x="662" y="336" width="118" height="32" rx="16" class="chipActive"/>
  <text x="684" y="356" fill="#087f78" font-family="Inter, Arial, sans-serif" font-size="14" font-weight="800">Scheduler</text>
  <rect x="742" y="343" width="24" height="18" rx="9" fill="#d5f3ef"/>
  <text x="748" y="356" fill="#087f78" font-family="Inter, Arial, sans-serif" font-size="12">23</text>
  <text x="806" y="356" class="muted small">Link</text>
  <rect x="838" y="342" width="24" height="18" rx="9" fill="#eef2f3"/>
  <text x="844" y="356" class="muted tiny">20</text>

  <line x1="56" y1="394" x2="1542" y2="394" class="line"/>
  <text x="56" y="378" class="muted small strong">Name</text>
  <text x="560" y="378" class="muted small strong">Location</text>
  <text x="1060" y="378" class="muted small strong">Created at</text>
  <line x1="548" y1="350" x2="548" y2="828" class="line2"/>
  <line x1="1478" y1="350" x2="1478" y2="828" class="line2"/>

  <g class="text small">
    <text x="56" y="426">Sprint planning</text>
    <path d="M570 411 L584 418 L570 425 L556 418 Z" fill="#c4c9ce"/>
    <text x="592" y="426" class="muted">E2E-C03 - scheduler route - 4</text>
    <text x="1060" y="426">2026-05-18 10:30:45</text>
    <text x="1518" y="426" class="muted strong">...</text>

    <text x="56" y="476">Forecast check</text>
    <path d="M570 461 L584 468 L570 475 L556 468 Z" fill="#c4c9ce"/>
    <text x="592" y="476" class="muted">E2E-C03 - scheduler route - 4</text>
    <text x="1060" y="476">2026-05-18 10:30:44</text>
    <text x="1518" y="476" class="muted strong">...</text>

    <text x="56" y="526">Resource audit</text>
    <path d="M570 511 L584 518 L570 525 L556 518 Z" fill="#c4c9ce"/>
    <text x="592" y="526" class="muted">E2E-C03 - scheduler route - 3</text>
    <text x="1060" y="526">2026-05-18 10:30:42</text>
    <text x="1518" y="526" class="muted strong">...</text>

    <text x="56" y="576">Launch readiness</text>
    <path d="M570 561 L584 568 L570 575 L556 568 Z" fill="#c4c9ce"/>
    <text x="592" y="576" class="muted">E2E-C03 - scheduler route - 3</text>
    <text x="1060" y="576">2026-05-18 10:30:40</text>
    <text x="1518" y="576" class="muted strong">...</text>

    <text x="56" y="626">Customer follow-up</text>
    <path d="M570 611 L584 618 L570 625 L556 618 Z" fill="#c4c9ce"/>
    <text x="592" y="626" class="muted">E2E-C03 - scheduler route - 2</text>
    <text x="1060" y="626">2026-05-18 10:30:38</text>
    <text x="1518" y="626" class="muted strong">...</text>

    <text x="56" y="676">Weekly report</text>
    <path d="M570 661 L584 668 L570 675 L556 668 Z" fill="#c4c9ce"/>
    <text x="592" y="676" class="muted">E2E-C03 - scheduler route - 2</text>
    <text x="1060" y="676">2026-05-18 10:30:36</text>
    <text x="1518" y="676" class="muted strong">...</text>

    <text x="56" y="726">Open work item</text>
    <path d="M570 711 L584 718 L570 725 L556 718 Z" fill="#c4c9ce"/>
    <text x="592" y="726" class="muted">E2E-C03 - scheduler route - 1</text>
    <text x="1060" y="726">2026-05-18 10:30:09</text>
    <text x="1518" y="726" class="muted strong">...</text>
  </g>
  <line x1="56" y1="444" x2="1542" y2="444" class="line2"/>
  <line x1="56" y1="494" x2="1542" y2="494" class="line2"/>
  <line x1="56" y1="544" x2="1542" y2="544" class="line2"/>
  <line x1="56" y1="594" x2="1542" y2="594" class="line2"/>
  <line x1="56" y1="644" x2="1542" y2="644" class="line2"/>
  <line x1="56" y1="694" x2="1542" y2="694" class="line2"/>
  <line x1="56" y1="744" x2="1542" y2="744" class="line2"/>

  <text x="56" y="812" class="muted small">Showing 1 to 23 of 23</text>
  <rect x="1338" y="792" width="32" height="32" rx="8" fill="#e1f7f3"/>
  <text x="1350" y="813" fill="#087f78" font-family="Inter, Arial, sans-serif" font-size="14" font-weight="800">1</text>
  <rect x="1410" y="792" width="132" height="32" rx="8" fill="#f3f4f6"/>
  <text x="1432" y="813" class="text small">Items per page: 25</text>

  <rect x="1078" y="230" width="292" height="70" rx="12" fill="#fff" stroke="#dfe5ea" stroke-width="1.5"/>
  <text x="1100" y="256" class="text small strong">Tab system in this screen</text>
  <text x="1100" y="280" class="muted tiny">The user opens work items as tabs, then filters</text>
  <text x="1100" y="296" class="muted tiny">and switches without losing each tab's context.</text>
</svg>
